<svg>
    <symbol id="circle" width="5" height="5" viewBox="0 0 5 5" fill="none" xmlns="http://www.w3.org/2000/svg">
        <path d="M4.815 2.705C4.815 2.975 4.765 3.235 4.665 3.485C4.575 3.725 4.44 3.94 4.26 4.13C4.08 4.31 3.865 4.455 3.615 4.565C3.365 4.675 3.085 4.73 2.775 4.73C2.455 4.73 2.17 4.675 1.92 4.565C1.67 4.455 1.455 4.31 1.275 4.13C1.105 3.94 0.97 3.725 0.87 3.485C0.78 3.235 0.735 2.975 0.735 2.705C0.735 2.435 0.78 2.18 0.87 1.94C0.97 1.69 1.105 1.475 1.275 1.295C1.455 1.115 1.67 0.97 1.92 0.86C2.17 0.75 2.455 0.695 2.775 0.695C3.085 0.695 3.365 0.75 3.615 0.86C3.865 0.97 4.08 1.115 4.26 1.295C4.44 1.475 4.575 1.69 4.665 1.94C4.765 2.18 4.815 2.435 4.815 2.705Z" fill="#B0ACAC"/>
    </symbol>
    <symbol id="order-icon" width="31" height="31" viewBox="0 0 31 31" fill="none" xmlns="http://www.w3.org/2000/svg">
        <path d="M30.412 9.53845L28.4847 7.61117C28.2234 7.34984 27.7661 7.2845 27.4394 7.4805C26.2961 8.19915 24.8588 8.03582 23.9115 7.0885C22.9642 6.14119 22.8008 4.67123 23.5195 3.56058C23.7155 3.23392 23.6828 2.80926 23.3888 2.51527L21.4615 0.587987C20.6775 -0.195996 19.3709 -0.195996 18.5869 0.587987L13.687 5.48788L15.7123 7.51316L14.5363 8.68914L12.5111 6.66385L0.587987 18.5869C-0.195996 19.3709 -0.195996 20.6775 0.587987 21.4615L2.51527 23.3888C2.7766 23.6501 3.20126 23.7155 3.52792 23.5195C4.63857 22.8335 6.07585 23.0295 7.02317 23.9442C7.93781 24.8588 8.13383 26.2961 7.44784 27.4394C7.25184 27.7661 7.2845 28.1907 7.57849 28.452L9.53845 30.412C9.93044 30.804 10.4531 31 10.9758 31C11.4984 31 12.0211 30.804 12.4131 30.412L24.3361 18.4889L22.3109 16.4636L23.4868 15.2877L25.5121 17.313L30.412 12.4131C31.196 11.6291 31.196 10.3224 30.412 9.53845ZM15.647 9.83245L16.823 8.65647L19.0116 10.8451L17.8356 12.0211L15.647 9.83245ZM21.1349 15.3203L18.9462 13.1317L20.1222 11.9557L22.3109 14.1444L21.1349 15.3203Z" fill="white" />
    </symbol>
    <symbol id="video-icon" width="31" height="31" viewBox="0 0 31 31" fill="none" xmlns="http://www.w3.org/2000/svg">
        <path d="M15.5 0C6.9381 0 0 6.9381 0 15.5C0 24.0619 6.9381 31 15.5 31C24.0619 31 31 24.0619 31 15.5C31 6.9381 24.0619 0 15.5 0ZM20.8143 16.8286L13.4333 21.8845C12.3631 22.6226 10.8869 21.8476 10.8869 20.556V10.444C10.8869 9.15238 12.4 8.37738 13.4333 9.11548L20.7774 14.1714C21.7369 14.7988 21.7369 16.2012 20.8143 16.8286Z" fill="white" />
    </symbol>
    <symbol id="facebook-icon" width="11" height="22" viewBox="0 0 11 22" fill="none" xmlns="http://www.w3.org/2000/svg">
        <path d="M0.351225 11.7172H2.73822V21.6452C2.73822 21.8412 2.89542 22 3.08944 22H7.13667C7.33069 22 7.4879 21.8412 7.4879 21.6452V11.764H10.2319C10.4104 11.764 10.5605 11.6287 10.5808 11.4497L10.9976 7.79467C11.0091 7.69411 10.9775 7.59341 10.9109 7.51797C10.8443 7.44246 10.7489 7.39924 10.6488 7.39924H7.48804V5.10812C7.48804 4.41746 7.85612 4.06723 8.58217 4.06723C8.68564 4.06723 10.6488 4.06723 10.6488 4.06723C10.8428 4.06723 11 3.90834 11 3.71239V0.357465C11 0.161452 10.8428 0.00262581 10.6488 0.00262581H7.8007C7.78061 0.00163226 7.736 0 7.67025 0C7.17608 0 5.45838 0.0980064 4.10153 1.3591C2.59815 2.7566 2.80713 4.42988 2.85707 4.71999V7.39917H0.351225C0.157208 7.39917 2.05796e-07 7.55799 2.05796e-07 7.75401V11.3623C2.05796e-07 11.5583 0.157208 11.7172 0.351225 11.7172Z" fill="white" />
    </symbol>
    <symbol id="vk-icon" width="28" height="15" viewBox="0 0 28 15" fill="none" xmlns="http://www.w3.org/2000/svg">
        <path fill-rule="evenodd" clip-rule="evenodd" d="M24.098 9.53768C25.0268 10.3961 26.0071 11.2038 26.8401 12.1488C27.2081 12.5687 27.5565 13.002 27.823 13.4894C28.2007 14.1822 27.8586 14.9445 27.2024 14.9859L23.1233 14.9842C22.0712 15.0668 21.2319 14.6658 20.5262 13.9849C19.9615 13.4403 19.4385 12.8608 18.8954 12.2978C18.6728 12.0678 18.4398 11.8513 18.1614 11.6801C17.6045 11.338 17.1212 11.4427 16.803 11.9925C16.4789 12.5517 16.4053 13.1709 16.3735 13.7941C16.3298 14.7034 16.0395 14.9424 15.0746 14.9841C13.0126 15.0761 11.0557 14.7808 9.23773 13.7961C7.63497 12.928 6.3921 11.7025 5.31032 10.3151C3.20406 7.61357 1.59109 4.645 0.141409 1.59327C-0.184901 0.905713 0.053737 0.536635 0.855117 0.523572C2.18584 0.4991 3.51639 0.500842 4.84868 0.521831C5.38952 0.52932 5.74757 0.82298 5.95641 1.30667C6.67637 2.9825 7.55733 4.5769 8.66312 6.05478C8.9576 6.44824 9.25788 6.84171 9.68548 7.11865C10.1585 7.42528 10.5187 7.32365 10.7412 6.82481C10.8824 6.50851 10.9443 6.16782 10.9761 5.82905C11.0815 4.66355 11.0954 3.50006 10.9105 2.33866C10.797 1.61382 10.3657 1.1446 9.60167 1.00743C9.21179 0.9375 9.26984 0.800163 9.45861 0.589498C9.78649 0.226167 10.0949 0 10.7096 0H15.3196C16.0454 0.135596 16.2065 0.444235 16.3059 1.13554L16.3099 5.98311C16.3019 6.25073 16.4511 7.04488 16.9603 7.22202C17.3678 7.34812 17.6364 7.03948 17.881 6.79485C18.9847 5.68588 19.7725 4.37529 20.4763 3.0182C20.7886 2.42148 21.0571 1.80176 21.3174 1.18257C21.5102 0.72309 21.8128 0.49701 22.3595 0.507025L26.7964 0.51077C26.928 0.51077 27.0611 0.512599 27.1885 0.533239C27.9362 0.653855 28.141 0.958315 27.9101 1.64944C27.5463 2.73377 26.8384 3.6374 26.1462 4.5452C25.4063 5.5144 24.6149 6.45042 23.8812 7.42537C23.207 8.31567 23.2605 8.76443 24.098 9.53768Z" fill="white" />
    </symbol>
    <symbol id="arrow-down-icon" width="17" height="9" viewBox="0 0 17 9" fill="none" xmlns="http://www.w3.org/2000/svg">
        <path d="M1 1L8.5 8L16 1" stroke="white" />
    </symbol>
    <symbol id="loupe" width="40" height="40" viewBox="0 0 40 40" fill="none" xmlns="http://www.w3.org/2000/svg">
        <path d="M39.5815 37.6282L27.7637 25.8104C32.9257 19.6717 32.6467 10.3939 26.8568 4.60402C20.7181 -1.53467 10.7427 -1.53467 4.60402 4.60402C-1.53467 10.7427 -1.53467 20.7181 4.60402 26.8568C7.67337 29.8564 11.7193 31.3911 15.6955 31.3911C19.2532 31.3911 22.8806 30.1354 25.7407 27.7637L37.5585 39.5815C37.9073 39.8605 38.2561 40 38.6048 40C38.9536 40 39.3024 39.8605 39.5815 39.5815C40.1395 39.0234 40.1395 38.1863 39.5815 37.6282ZM24.8338 24.8338C19.8113 29.8564 11.5798 29.8564 6.55725 24.8338C1.53467 19.8113 1.53467 11.5798 6.55725 6.55725C9.06853 4.04596 12.4169 2.79032 15.6955 2.79032C18.9742 2.79032 22.3225 4.04596 24.8338 6.55725C29.8564 11.5798 29.8564 19.8113 24.8338 24.8338ZM24.0665 15.6955C24.0665 16.4629 23.4387 17.0907 22.6713 17.0907H17.0907V22.6713C17.0907 23.4387 16.4629 24.0665 15.6955 24.0665C14.9282 24.0665 14.3004 23.4387 14.3004 22.6713V17.0907H8.71974C7.9524 17.0907 7.32458 16.4629 7.32458 15.6955C7.32458 14.9282 7.9524 14.3004 8.71974 14.3004H14.3004V8.71974C14.3004 7.9524 14.9282 7.32458 15.6955 7.32458C16.4629 7.32458 17.0907 7.9524 17.0907 8.71974V14.3004H22.6713C23.4387 14.3004 24.0665 14.9282 24.0665 15.6955Z" fill="white" />
    </symbol>
    <symbol id="arrow-pointer-one" width="181" height="115" viewBox="0 0 181 115" fill="none" xmlns="http://www.w3.org/2000/svg">
        <ellipse cx="176.805" cy="110.5" rx="4.19545" ry="4.5" transform="rotate(180 176.805 110.5)" fill="#C4C4C4" />
        <path d="M174.598 107L75 1H0" stroke="#C4C4C4" stroke-width="0.5" />
    </symbol>
    <symbol id="arrow-pointer-two" width="409" height="83" viewBox="0 0 409 83" fill="none" xmlns="http://www.w3.org/2000/svg">
        <circle cx="404.5" cy="4.5" r="4.5" transform="rotate(180 404.5 4.5)" fill="#C4C4C4" />
        <path d="M401 6.5L111.893 82H0" stroke="#C4C4C4" stroke-width="0.5" />
    </symbol>
    <symbol id="arrow-pointer-three" width="124" height="90" viewBox="0 0 124 90" fill="none" xmlns="http://www.w3.org/2000/svg">
        <ellipse cx="4.21519" cy="4.5" rx="4.21519" ry="4.5" transform="matrix(-1 0 0 1 8.43036 0)" fill="#C4C4C4" />
        <path d="M8 7L99.5 89H123.5" stroke="#C4C4C4" stroke-width="0.5" />
    </symbol>
    <symbol id="arrow-pointer-four" width="245" height="98" viewBox="0 0 245 98" fill="none" xmlns="http://www.w3.org/2000/svg">
        <ellipse cx="4.22693" cy="93.9042" rx="4.22693" ry="4.09581" transform="rotate(180 4.22693 93.9042)" fill="#C4C4C4" />
        <path d="M245 0.5H126L8.02295 91.6287" stroke="#C4C4C4" stroke-width="0.5" />
    </symbol>
    <symbol id="circle-question" width="12" height="12" viewBox="0 0 7 7" fill="none" xmlns="http://www.w3.org/2000/svg">
        <path d="M4.815 2.705C4.815 2.975 4.765 3.235 4.665 3.485C4.575 3.725 4.44 3.94 4.26 4.13C4.08 4.31 3.865 4.455 3.615 4.565C3.365 4.675 3.085 4.73 2.775 4.73C2.455 4.73 2.17 4.675 1.92 4.565C1.67 4.455 1.455 4.31 1.275 4.13C1.105 3.94 0.97 3.725 0.87 3.485C0.78 3.235 0.735 2.975 0.735 2.705C0.735 2.435 0.78 2.18 0.87 1.94C0.97 1.69 1.105 1.475 1.275 1.295C1.455 1.115 1.67 0.97 1.92 0.86C2.17 0.75 2.455 0.695 2.775 0.695C3.085 0.695 3.365 0.75 3.615 0.86C3.865 0.97 4.08 1.115 4.26 1.295C4.44 1.475 4.575 1.69 4.665 1.94C4.765 2.18 4.815 2.435 4.815 2.705Z" fill="#0DD1A2"/>
    </symbol>
    <symbol id="plus-icon" width="32" height="32" viewBox="0 0 32 32" fill="none" xmlns="http://www.w3.org/2000/svg">
        <path d="M0.688 10.784L10.144 10.784L10.144 0.367998L12.928 0.367998L12.928 10.784L22.384 10.784L22.384 13.472L12.928 13.472L12.928 23.936L10.144 23.936L10.144 13.472L0.688 13.472L0.688 10.784Z" fill="white"/>
    </symbol>
    <symbol id="multipli-icon" width="33" height="33" viewBox="0 0 33 33" fill="none" xmlns="http://www.w3.org/2000/svg">
        <path d="M9.56814 7.43432L16.2545 14.1207L23.6198 6.75549L25.5884 8.72408L18.2231 16.0893L24.9095 22.7757L23.0088 24.6764L16.3224 17.99L8.92326 25.3892L6.95467 23.4206L14.3538 16.0214L7.66744 9.33502L9.56814 7.43432Z" fill="white"/>
    </symbol>
</svg>
