<svg xmlns="http://www.w3.org/2000/svg" width="28" height="15" fill="none"><path fill="#fff" fill-rule="evenodd" d="M24.1 9.54c.93.86 1.9 1.66 2.74 2.6.37.43.72.86.98 1.35.38.7.04 1.45-.62 1.5h-4.08a3.24 3.24 0 0 1-2.6-1c-.56-.55-1.08-1.13-1.62-1.7a3.8 3.8 0 0 0-.74-.61c-.56-.34-1.04-.24-1.36.31-.32.56-.4 1.18-.43 1.8-.04.91-.33 1.15-1.3 1.2-2.06.09-4.01-.2-5.83-1.2-1.6-.86-2.85-2.09-3.93-3.47A46.23 46.23 0 0 1 .14 1.59C-.18.91.05.54.86.52 2.19.5 3.52.5 4.85.52c.54 0 .9.3 1.1.79.73 1.67 1.6 3.27 2.71 4.74.3.4.6.8 1.03 1.07.47.3.83.2 1.05-.3.14-.31.2-.65.24-1 .1-1.16.12-2.32-.07-3.48A1.49 1.49 0 0 0 9.61 1C9.2.94 9.26.8 9.45.59 9.79.23 10.09 0 10.7 0h4.61c.73.14.89.44.99 1.14v4.84c0 .27.14 1.06.65 1.24.4.13.68-.18.92-.43 1.1-1.1 1.9-2.41 2.6-3.77a24 24 0 0 0 .84-1.84c.19-.46.5-.68 1.04-.67h4.44c.13 0 .26 0 .39.02.75.12.95.43.72 1.12-.36 1.08-1.07 1.99-1.76 2.9-.74.96-1.54 1.9-2.27 2.88-.67.89-.62 1.33.22 2.1Z" clip-rule="evenodd"/></svg>