<svg xmlns="http://www.w3.org/2000/svg" width="31" height="31" fill="none"><path fill="#fff" d="M30.41 9.54 28.48 7.6a.89.89 0 0 0-1.04-.13 2.82 2.82 0 0 1-3.53-.4 2.82 2.82 0 0 1-.39-3.52.85.85 0 0 0-.13-1.04L21.46.59a2.05 2.05 0 0 0-2.87 0l-4.9 4.9L15.7 7.5 14.54 8.7 12.5 6.66.6 18.6c-.79.78-.79 2.09 0 2.87l1.93 1.93c.26.26.68.33 1 .13a2.86 2.86 0 0 1 3.92 3.92.8.8 0 0 0 .14 1.01l1.96 1.96c.39.4.91.59 1.44.59.52 0 1.04-.2 1.43-.59L24.34 18.5l-2.03-2.03 1.18-1.17 2.02 2.02 4.9-4.9c.79-.78.79-2.09 0-2.87Zm-14.76.3 1.17-1.18 2.2 2.19-1.18 1.17-2.2-2.19Zm5.48 5.48-2.18-2.19 1.17-1.17 2.2 2.18-1.19 1.18Z"/></svg>