<svg xmlns="http://www.w3.org/2000/svg"><style>:root svg:not(:target){display:none}</style><svg viewBox="0 0 33 33" fill="none" id="acordeon-close"><path d="m9.57 7.43 6.68 6.7 7.37-7.37 1.97 1.96-7.37 7.37 6.69 6.69-1.9 1.9-6.69-6.69-7.4 7.4-1.97-1.97 7.4-7.4-6.68-6.68 1.9-1.9Z" fill="#fff"></path></svg><svg viewBox="0 0 23 24" fill="none" id="acordeon-open"><path d="M.69 10.78h9.45v-10.41h2.79v10.41h9.45v2.7h-9.45v10.46h-2.79v-10.47h-9.45v-2.69Z" fill="#fff"></path></svg><svg viewBox="0 0 10 18" fill="none" id="arrow-left-slider"><path d="m9.22 1-8.22 8 8.22 8" stroke="#fff"></path></svg><svg viewBox="0 0 10 18" fill="none" id="arrow-right-slider"><path d="m.78 17 8.22-8-8.22-8" stroke="#fff"></path></svg><svg viewBox="0 0 17 9" fill="none" id="arrow-scroll"><path d="m1 1 7.5 7 7.5-7" stroke="#fff"></path></svg><svg viewBox="0 0 21 20" fill="none" id="burger-menu-close"><path fill="#E0E0E0" d="m2.37 0 17.68 17.68-1.42 1.41-17.68-17.68z"></path><path fill="#E0E0E0" d="m.95 18 17.68-17.68 1.42 1.42-17.68 17.67z"></path></svg><svg viewBox="0 0 24 14" fill="none" id="burger-menu-open"><path fill="#E0E0E0" d="M0 0h24v2h-24zm0 6h24v2h-24zm8 6h16v2h-16z"></path></svg><svg viewBox="0 0 32 32" fill="none" id="facebook-icon"><path d="M10.35 15.72h2.39v9.93c0 .2.16.35.35.35h4.05c.2 0 .35-.16.35-.35v-9.89h2.74c.18 0 .33-.13.35-.31l.42-3.66a.36.36 0 0 0-.09-.27.35.35 0 0 0-.26-.12h-3.16v-2.3c0-.68.37-1.03 1.1-1.03h2.06c.2 0 .35-.16.35-.36v-3.35c0-.2-.16-.36-.35-.36h-2.98c-.5 0-2.21.1-3.57 1.36a3.8 3.8 0 0 0-1.24 3.36v2.68h-2.5c-.2 0-.36.16-.36.35v3.61c0 .2.16.36.35.36Z" fill="#fff" opacity=".64"></path></svg><svg viewBox="0 0 31 31" fill="none" id="index-order-icon"><path d="m30.41 9.54-1.93-1.93a.89.89 0 0 0-1.04-.13 2.82 2.82 0 0 1-3.53-.4 2.82 2.82 0 0 1-.39-3.52.85.85 0 0 0-.13-1.04l-1.93-1.93a2.05 2.05 0 0 0-2.87 0l-4.9 4.9 2.02 2.02-1.17 1.18-2.03-2.03-11.92 11.93a2.03 2.03 0 0 0 0 2.87l1.93 1.93c.26.26.68.33 1 .13a2.86 2.86 0 0 1 3.92 3.92.8.8 0 0 0 .14 1.01l1.96 1.96c.39.4.91.59 1.44.59.52 0 1.04-.2 1.43-.59l11.93-11.92-2.03-2.03 1.18-1.17 2.02 2.02 4.9-4.9c.79-.78.79-2.09 0-2.87Zm-14.76.3 1.17-1.18 2.2 2.19-1.18 1.17-2.2-2.19Zm5.48 5.48-2.18-2.19 1.17-1.17 2.2 2.18-1.19 1.18Z" fill="#fff"></path></svg><svg viewBox="0 0 31 31" fill="none" id="index-play-icon"><path d="M15.5 0a15.5 15.5 0 1 0 0 31 15.5 15.5 0 0 0 0-31Zm5.31 16.83-7.38 5.05a1.63 1.63 0 0 1-2.54-1.32v-10.12c0-1.29 1.51-2.06 2.54-1.32l7.35 5.05c.96.63.96 2.03.03 2.66Z" fill="#fff"></path></svg><svg viewBox="0 0 28 28" fill="none" id="logo-image"><g clip-path="url(#logo-image_0)" fill="#fff"><path d="M5.47 14.97a1.27 1.27 0 1 0 0-2.54 1.27 1.27 0 0 0 0 2.54Zm16.66 0a1.27 1.27 0 1 0 0-2.54 1.27 1.27 0 0 0 0 2.54Z"></path><path d="M14 0a13.97 13.97 0 0 0-11.27 5.6h3.97a8.66 8.66 0 0 0 4.1-1.1 2.87 2.87 0 0 1 3.33.5c.54.54.86 1.26.88 2.03a2.9 2.9 0 0 1-4.29 2.52 10.63 10.63 0 0 0-5-1.36h-1.37c-1.14 0-2.27.22-3.34.62a14 14 0 0 0 0 10.38c.62.16 1.26.25 1.9.25h3.35a8.67 8.67 0 0 0 4.1-1.1 2.87 2.87 0 0 1 3.33.49c.55.53.87 1.26.9 2.02a2.9 2.9 0 0 1-4.25 2.6 10.63 10.63 0 0 0-5-1.37h-1.37c-.42 0-.83.03-1.24.1a14 14 0 1 0 11.27-22.18Zm8.19 17.18c-.57 0-1.12-.14-1.61-.41a12.51 12.51 0 0 0-5.9-1.64h-1.6c-2.08.05-4.1.61-5.9 1.64a3.4 3.4 0 0 1-5.01-3.06 3.44 3.44 0 0 1 3.48-3.33c.52.02 1.04.15 1.5.4a10.2 10.2 0 0 0 4.76 1.36h3.96a10.2 10.2 0 0 0 4.76-1.36 3.37 3.37 0 0 1 3.93.56 3.4 3.4 0 0 1-2.34 5.84h-.03Z"></path><path d="M11.58 21.93a1.08 1.08 0 1 0 0-2.16 1.08 1.08 0 0 0 0 2.16Zm.42-13.85a1.08 1.08 0 1 0 0-2.16 1.08 1.08 0 0 0 0 2.16Z"></path></g><defs><clipPath id="logo-image_0"><path fill="#fff" d="M0 0h28v28h-28z"></path></clipPath></defs></svg><svg viewBox="0 0 148 14" fill="none" id="logo-text"><path d="m2.76 11.13.52.03h.89c1.52 0 2.65-.38 3.4-1.15a4.49 4.49 0 0 0 1.13-3.26c0-1.41-.36-2.5-1.1-3.25-.73-.76-1.86-1.14-3.4-1.14-.67 0-1.15.02-1.44.06v8.7Zm8.32-4.38a7.3 7.3 0 0 1-.5 2.83c-.34.8-.82 1.46-1.45 2-.6.53-1.35.92-2.23 1.19-.86.25-1.82.37-2.88.37a21.57 21.57 0 0 1-3.53-.32v-12.11c.58-.14 1.2-.22 1.84-.26.65-.03 1.22-.05 1.73-.05 1.04 0 2 .13 2.86.38.86.24 1.6.62 2.21 1.15.63.52 1.1 1.18 1.44 1.98.34.8.5 1.74.5 2.84Zm3.2-6.22h2.26v12.47h-2.27v-12.47Zm11.8 1.7c-1.28 0-2.27.4-2.95 1.21a5 5 0 0 0-1 3.31c0 .68.07 1.3.23 1.86a3.61 3.61 0 0 0 1.9 2.36c.48.21 1.04.32 1.68.32.4 0 .74-.01 1.02-.04.3-.03.52-.07.69-.12v-4.48h2.27v5.99a13.66 13.66 0 0 1-4.16.61c-.9 0-1.72-.14-2.47-.43a5.2 5.2 0 0 1-3.11-3.3 8.2 8.2 0 0 1-.43-2.77c0-1.04.15-1.96.46-2.77.33-.8.77-1.48 1.32-2.03.55-.57 1.2-1 1.94-1.28a6.52 6.52 0 0 1 2.38-.43 9.27 9.27 0 0 1 2.7.38c.32.1.59.2.79.3l.45.24-.68 1.85a5 5 0 0 0-1.35-.54 5.88 5.88 0 0 0-1.68-.23Zm7.18-1.7h2.27v12.47h-2.27v-12.47Zm14.67 0v1.96h-3.84v10.51h-2.28v-10.51h-3.84v-1.96h9.96Zm9.7 12.47c-.16-.5-.33-.98-.51-1.46a42.3 42.3 0 0 1-.53-1.47h-5.25l-.52 1.49-.5 1.44h-2.37a212.4 212.4 0 0 1 2.56-6.9 124.87 124.87 0 0 1 2.43-5.57h2.14a92.22 92.22 0 0 1 2.41 5.58 141.63 141.63 0 0 1 2.6 6.9h-2.45Zm-3.66-10.06a76.7 76.7 0 0 0-2.06 5.29h4.1a121.41 121.41 0 0 0-2.04-5.3Zm16.3 8.1v1.96h-7.89v-12.47h2.27v10.5h5.62Zm10.9-10.64c1.8 0 3.2.33 4.15.99.98.66 1.46 1.7 1.46 3.1 0 .73-.13 1.36-.4 1.89-.25.51-.62.94-1.1 1.27-.5.33-1.1.57-1.8.72-.72.16-1.53.24-2.44.24h-1.13v4.39h-2.27v-12.3c.53-.11 1.1-.2 1.74-.23.65-.05 1.25-.07 1.79-.07Zm.16 1.96c-.58 0-1.05.02-1.42.06v4.24h1.1a5.6 5.6 0 0 0 2.51-.45c.6-.3.89-.89.89-1.74 0-.41-.08-.75-.24-1.03a1.7 1.7 0 0 0-.65-.65c-.27-.15-.6-.26-.99-.32-.37-.07-.77-.1-1.2-.1Zm16.13 8.68v1.96h-7.89v-12.47h2.27v10.5h5.62Zm11.19 1.96c-.17-.5-.35-.98-.53-1.46a42.3 42.3 0 0 1-.52-1.47h-5.25l-.53 1.49-.5 1.44h-2.36a211.53 211.53 0 0 1 2.56-6.9 124.87 124.87 0 0 1 2.43-5.57h2.14a92.22 92.22 0 0 1 2.41 5.58 141.63 141.63 0 0 1 2.6 6.9h-2.45Zm-3.68-10.06a76.7 76.7 0 0 0-2.05 5.29h4.1a121.41 121.41 0 0 0-2.05-5.3Zm16.83 10.06a89.8 89.8 0 0 0-4.59-6.9 38.15 38.15 0 0 0-1.59-2.03v8.93h-2.23v-12.47h1.86c.47.5 1 1.1 1.54 1.8a66.58 66.58 0 0 1 3.28 4.39c.53.74 1 1.44 1.4 2.09v-8.28h2.25v12.47h-1.92Zm5.64 0v-12.47h8v1.92h-5.74v3.08h5.12v1.89h-5.12v3.65h6.18v1.93h-8.44Zm19.96-12.47v1.96h-3.84v10.51h-2.28v-10.51h-3.84v-1.96h9.96Z" fill="#fff"></path></svg><svg viewBox="0 0 193 28" fill="none" id="logo"><path d="m46.76 18.13.52.03h.89c1.52 0 2.65-.38 3.4-1.15a4.49 4.49 0 0 0 1.13-3.26c0-1.41-.36-2.5-1.1-3.25-.73-.76-1.86-1.14-3.4-1.14-.67 0-1.15.02-1.44.06v8.7Zm8.32-4.38a7.3 7.3 0 0 1-.5 2.83c-.34.8-.82 1.46-1.45 2-.6.53-1.35.92-2.23 1.19-.86.25-1.82.37-2.88.37a21.57 21.57 0 0 1-3.53-.32v-12.11c.58-.14 1.2-.22 1.84-.26.65-.03 1.22-.05 1.73-.05 1.04 0 2 .13 2.86.38.86.24 1.6.62 2.21 1.15.63.52 1.1 1.18 1.44 1.98.34.8.5 1.74.5 2.84Zm3.2-6.22h2.26v12.47h-2.27v-12.47Zm11.8 1.7c-1.28 0-2.27.4-2.95 1.21a5 5 0 0 0-1 3.31c0 .68.07 1.3.23 1.86a3.61 3.61 0 0 0 1.9 2.36c.48.21 1.04.32 1.68.32.4 0 .74-.01 1.02-.04.3-.03.52-.07.69-.12v-4.48h2.27v5.99a13.66 13.66 0 0 1-4.16.61c-.9 0-1.72-.14-2.47-.43a5.2 5.2 0 0 1-3.11-3.3 8.2 8.2 0 0 1-.43-2.77c0-1.04.15-1.96.46-2.77.33-.8.77-1.48 1.32-2.03.55-.57 1.2-1 1.94-1.28a6.52 6.52 0 0 1 2.38-.43 9.27 9.27 0 0 1 2.7.38c.32.1.59.2.79.3l.45.24-.68 1.85a5 5 0 0 0-1.35-.54 5.88 5.88 0 0 0-1.68-.23Zm7.18-1.7h2.27v12.47h-2.27v-12.47Zm14.67 0v1.96h-3.84v10.51h-2.28v-10.51h-3.84v-1.96h9.96Zm9.7 12.47c-.16-.5-.33-.98-.51-1.46a42.3 42.3 0 0 1-.53-1.47h-5.25l-.52 1.49-.5 1.44h-2.37a212.4 212.4 0 0 1 2.56-6.9 124.87 124.87 0 0 1 2.43-5.57h2.14a93.02 93.02 0 0 1 2.41 5.58 141.63 141.63 0 0 1 2.6 6.9h-2.45Zm-3.66-10.06a76.7 76.7 0 0 0-2.06 5.29h4.1a122.6 122.6 0 0 0-2.04-5.3Zm16.3 8.1v1.96h-7.89v-12.47h2.27v10.5h5.62Zm10.9-10.64c1.8 0 3.2.33 4.15.99.98.66 1.46 1.7 1.46 3.1 0 .73-.13 1.36-.4 1.89-.25.51-.62.94-1.1 1.27-.5.33-1.1.57-1.8.72-.72.16-1.53.24-2.44.24h-1.13v4.39h-2.27v-12.3a22.95 22.95 0 0 1 3.53-.3Zm.16 1.96c-.58 0-1.05.02-1.42.06v4.24h1.1c1.09 0 1.93-.15 2.52-.45.58-.3.88-.89.88-1.74 0-.41-.08-.75-.24-1.03a1.74 1.74 0 0 0-.64-.65 3.1 3.1 0 0 0-1-.32c-.37-.07-.77-.1-1.2-.1Zm16.13 8.68v1.96h-7.89v-12.47h2.27v10.5h5.62Zm11.19 1.96c-.17-.5-.35-.98-.53-1.46a42.3 42.3 0 0 1-.52-1.47h-5.25l-.53 1.49-.5 1.44h-2.36a212.4 212.4 0 0 1 2.56-6.9 124.87 124.87 0 0 1 2.43-5.57h2.14a92.22 92.22 0 0 1 2.41 5.58 141.63 141.63 0 0 1 2.6 6.9h-2.45Zm-3.68-10.06a76.7 76.7 0 0 0-2.05 5.29h4.1a121.41 121.41 0 0 0-2.05-5.3Zm16.83 10.06a89.8 89.8 0 0 0-4.59-6.9 38.15 38.15 0 0 0-1.59-2.03v8.93h-2.23v-12.47h1.86c.47.5 1 1.1 1.54 1.8a66.58 66.58 0 0 1 3.28 4.39c.53.74 1 1.44 1.4 2.09v-8.28h2.25v12.47h-1.92Zm5.63 0v-12.47h8.01v1.92h-5.74v3.08h5.12v1.89h-5.12v3.65h6.18v1.93h-8.44Zm19.97-12.47v1.96h-3.84v10.51h-2.28v-10.51h-3.84v-1.96h9.96Z" fill="#fff"></path><g clip-path="url(#logo_0)" fill="#fff"><path d="M5.47 14.97a1.27 1.27 0 1 0 0-2.54 1.27 1.27 0 0 0 0 2.54Zm16.66 0a1.27 1.27 0 1 0 0-2.54 1.27 1.27 0 0 0 0 2.54Z"></path><path d="M14 0a13.97 13.97 0 0 0-11.27 5.6h3.97a8.66 8.66 0 0 0 4.1-1.1 2.87 2.87 0 0 1 3.33.5c.54.54.86 1.26.88 2.03a2.9 2.9 0 0 1-4.29 2.52 10.63 10.63 0 0 0-5-1.36h-1.37c-1.14 0-2.27.22-3.34.62a14 14 0 0 0 0 10.38c.62.16 1.26.25 1.9.25h3.35a8.67 8.67 0 0 0 4.1-1.1 2.87 2.87 0 0 1 3.33.49c.55.53.87 1.26.9 2.02a2.9 2.9 0 0 1-4.25 2.6 10.63 10.63 0 0 0-5-1.37h-1.37c-.42 0-.83.03-1.24.1a14 14 0 1 0 11.27-22.18Zm8.19 17.18c-.57 0-1.12-.14-1.61-.41a12.51 12.51 0 0 0-5.9-1.64h-1.6c-2.08.05-4.1.61-5.9 1.64a3.4 3.4 0 0 1-5.01-3.06 3.44 3.44 0 0 1 3.48-3.33c.52.02 1.04.15 1.5.4a10.2 10.2 0 0 0 4.76 1.36h3.96a10.2 10.2 0 0 0 4.76-1.36 3.37 3.37 0 0 1 3.93.56 3.4 3.4 0 0 1-2.34 5.84h-.03Z"></path><path d="M11.58 21.93a1.08 1.08 0 1 0 0-2.16 1.08 1.08 0 0 0 0 2.16Zm.42-13.85a1.08 1.08 0 1 0 0-2.16 1.08 1.08 0 0 0 0 2.16Z"></path></g><defs><clipPath id="logo_0"><path fill="#fff" d="M0 0h28v28h-28z"></path></clipPath></defs></svg><svg viewBox="0 0 53 43" fill="none" id="modal-arrow"><path d="m4 22.08 14.65 16.92 30.35-35" stroke="#1DC04B" stroke-width="8" stroke-linecap="round" stroke-linejoin="round"></path></svg><svg viewBox="0 0 14 14" fill="none" id="modal-close"><path opacity=".3" d="m1.52.08 5.4 5.4 5.49-5.48 1.59 1.6-5.48 5.48 5.4 5.4-1.41 1.42-5.4-5.4-5.52 5.5-1.59-1.6 5.5-5.5-5.4-5.4 1.42-1.42Z" fill="#1C1C1C"></path></svg><svg viewBox="0 0 181 115" fill="none" id="technology-pointer-1"><ellipse cx="176.805" cy="110.5" rx="4.195" ry="4.5" transform="rotate(180 176.805 110.5)" fill="#C4C4C4"></ellipse><path d="m174.6 107-99.6-106h-75" stroke="#C4C4C4" stroke-width=".5"></path></svg><svg viewBox="0 0 409 83" fill="none" id="technology-pointer-2"><circle cx="404.5" cy="4.5" r="4.5" transform="rotate(180 404.5 4.5)" fill="#C4C4C4"></circle><path d="m401 6.5-289.1 75.5h-111.9" stroke="#C4C4C4" stroke-width=".5"></path></svg><svg viewBox="0 0 245 98" fill="none" id="technology-pointer-3"><ellipse cx="4.227" cy="93.904" rx="4.227" ry="4.096" transform="rotate(180 4.227 93.904)" fill="#C4C4C4"></ellipse><path d="M245 .5h-119l-117.98 91.13" stroke="#C4C4C4" stroke-width=".5"></path></svg><svg viewBox="0 0 124 90" fill="none" id="technology-pointer-4"><ellipse cx="4.215" cy="4.5" rx="4.215" ry="4.5" transform="matrix(-1 0 0 1 8.43 0)" fill="#C4C4C4"></ellipse><path d="m8 7 91.5 82h24" stroke="#C4C4C4" stroke-width=".5"></path></svg><svg viewBox="0 0 32 32" fill="none" id="vkontakte-icon"><path fill-rule="evenodd" clip-rule="evenodd" d="M26.1 18.54c.93.86 1.9 1.66 2.74 2.6.37.43.72.86.98 1.35.38.7.04 1.45-.62 1.5h-4.08a3.24 3.24 0 0 1-2.6-1c-.56-.55-1.08-1.13-1.62-1.7a3.8 3.8 0 0 0-.74-.61c-.56-.34-1.04-.24-1.36.31-.32.56-.4 1.18-.43 1.8-.04.91-.33 1.15-1.3 1.2a10.8 10.8 0 0 1-5.83-1.2 12.62 12.62 0 0 1-3.93-3.47 46.23 46.23 0 0 1-5.17-8.73c-.32-.68-.09-1.05.72-1.07 1.33-.02 2.66-.02 3.99 0 .54 0 .9.3 1.1.79.73 1.67 1.6 3.27 2.71 4.74.3.4.6.8 1.03 1.07.47.3.83.2 1.05-.3.14-.31.2-.65.24-1 .1-1.16.12-2.32-.07-3.48a1.49 1.49 0 0 0-1.3-1.33c-.4-.07-.34-.21-.15-.42.33-.36.63-.59 1.25-.59h4.61c.73.14.89.44.99 1.14v4.84c0 .27.14 1.06.65 1.24.4.13.68-.18.92-.43 1.1-1.1 1.9-2.41 2.6-3.77a24 24 0 0 0 .84-1.84c.19-.46.5-.68 1.04-.67h4.44c.13 0 .26 0 .39.02.75.12.95.43.72 1.12-.36 1.08-1.07 1.99-1.76 2.9-.74.96-1.54 1.9-2.27 2.88-.67.89-.62 1.33.22 2.1Z" fill="#fff" opacity=".64"></path></svg><svg viewBox="0 0 247 47" fill="none" id="work-line-one"><path opacity=".37" d="M246 41.17c-133.91 25.81-89.89-64.03-245-34.17" stroke="#E6E6E6" stroke-width="1.5" stroke-dasharray="9 4"></path></svg><svg viewBox="0 0 256 41" fill="none" id="work-line-three"><path opacity=".37" d="M255 34.98c-134.8 25.71-97.85-57.19-254-27.44" stroke="#E6E6E6" stroke-width="1.5" stroke-dasharray="9 4"></path></svg><svg viewBox="0 0 465 64" fill="none" id="work-line-two"><path opacity=".37" d="M1.5 63.5c20.5-31 72.5-57.57 178-48.5s184 54 285-14" stroke="#E6E6E6" stroke-width="1.5" stroke-dasharray="9 4"></path></svg></svg>