<svg viewBox="0 0 193 28" fill="none" xmlns="http://www.w3.org/2000/svg"><path d="m46.76 18.13.52.03h.89c1.52 0 2.65-.38 3.4-1.15a4.49 4.49 0 0 0 1.13-3.26c0-1.41-.36-2.5-1.1-3.25-.73-.76-1.86-1.14-3.4-1.14-.67 0-1.15.02-1.44.06v8.7Zm8.32-4.38a7.3 7.3 0 0 1-.5 2.83c-.34.8-.82 1.46-1.45 2-.6.53-1.35.92-2.23 1.19-.86.25-1.82.37-2.88.37a21.57 21.57 0 0 1-3.53-.32v-12.11c.58-.14 1.2-.22 1.84-.26.65-.03 1.22-.05 1.73-.05 1.04 0 2 .13 2.86.38.86.24 1.6.62 2.21 1.15.63.52 1.1 1.18 1.44 1.98.34.8.5 1.74.5 2.84Zm3.2-6.22h2.26v12.47h-2.27v-12.47Zm11.8 1.7c-1.28 0-2.27.4-2.95 1.21a5 5 0 0 0-1 3.31c0 .68.07 1.3.23 1.86a3.61 3.61 0 0 0 1.9 2.36c.48.21 1.04.32 1.68.32.4 0 .74-.01 1.02-.04.3-.03.52-.07.69-.12v-4.48h2.27v5.99a13.66 13.66 0 0 1-4.16.61c-.9 0-1.72-.14-2.47-.43a5.2 5.2 0 0 1-3.11-3.3 8.2 8.2 0 0 1-.43-2.77c0-1.04.15-1.96.46-2.77.33-.8.77-1.48 1.32-2.03.55-.57 1.2-1 1.94-1.28a6.52 6.52 0 0 1 2.38-.43 9.27 9.27 0 0 1 2.7.38c.32.1.59.2.79.3l.45.24-.68 1.85a5 5 0 0 0-1.35-.54 5.88 5.88 0 0 0-1.68-.23Zm7.18-1.7h2.27v12.47h-2.27v-12.47Zm14.67 0v1.96h-3.84v10.51h-2.28v-10.51h-3.84v-1.96h9.96Zm9.7 12.47c-.16-.5-.33-.98-.51-1.46a42.3 42.3 0 0 1-.53-1.47h-5.25l-.52 1.49-.5 1.44h-2.37a212.4 212.4 0 0 1 2.56-6.9 124.87 124.87 0 0 1 2.43-5.57h2.14a93.02 93.02 0 0 1 2.41 5.58 141.63 141.63 0 0 1 2.6 6.9h-2.45Zm-3.66-10.06a76.7 76.7 0 0 0-2.06 5.29h4.1a122.6 122.6 0 0 0-2.04-5.3Zm16.3 8.1v1.96h-7.89v-12.47h2.27v10.5h5.62Zm10.9-10.64c1.8 0 3.2.33 4.15.99.98.66 1.46 1.7 1.46 3.1 0 .73-.13 1.36-.4 1.89-.25.51-.62.94-1.1 1.27-.5.33-1.1.57-1.8.72-.72.16-1.53.24-2.44.24h-1.13v4.39h-2.27v-12.3a22.95 22.95 0 0 1 3.53-.3Zm.16 1.96c-.58 0-1.05.02-1.42.06v4.24h1.1c1.09 0 1.93-.15 2.52-.45.58-.3.88-.89.88-1.74 0-.41-.08-.75-.24-1.03a1.74 1.74 0 0 0-.64-.65 3.1 3.1 0 0 0-1-.32c-.37-.07-.77-.1-1.2-.1Zm16.13 8.68v1.96h-7.89v-12.47h2.27v10.5h5.62Zm11.19 1.96c-.17-.5-.35-.98-.53-1.46a42.3 42.3 0 0 1-.52-1.47h-5.25l-.53 1.49-.5 1.44h-2.36a212.4 212.4 0 0 1 2.56-6.9 124.87 124.87 0 0 1 2.43-5.57h2.14a92.22 92.22 0 0 1 2.41 5.58 141.63 141.63 0 0 1 2.6 6.9h-2.45Zm-3.68-10.06a76.7 76.7 0 0 0-2.05 5.29h4.1a121.41 121.41 0 0 0-2.05-5.3Zm16.83 10.06a89.8 89.8 0 0 0-4.59-6.9 38.15 38.15 0 0 0-1.59-2.03v8.93h-2.23v-12.47h1.86c.47.5 1 1.1 1.54 1.8a66.58 66.58 0 0 1 3.28 4.39c.53.74 1 1.44 1.4 2.09v-8.28h2.25v12.47h-1.92Zm5.63 0v-12.47h8.01v1.92h-5.74v3.08h5.12v1.89h-5.12v3.65h6.18v1.93h-8.44Zm19.97-12.47v1.96h-3.84v10.51h-2.28v-10.51h-3.84v-1.96h9.96Z" fill="#fff"/><g clip-path="url(#a)" fill="#fff"><path d="M5.47 14.97a1.27 1.27 0 1 0 0-2.54 1.27 1.27 0 0 0 0 2.54Zm16.66 0a1.27 1.27 0 1 0 0-2.54 1.27 1.27 0 0 0 0 2.54Z"/><path d="M14 0a13.97 13.97 0 0 0-11.27 5.6h3.97a8.66 8.66 0 0 0 4.1-1.1 2.87 2.87 0 0 1 3.33.5c.54.54.86 1.26.88 2.03a2.9 2.9 0 0 1-4.29 2.52 10.63 10.63 0 0 0-5-1.36h-1.37c-1.14 0-2.27.22-3.34.62a14 14 0 0 0 0 10.38c.62.16 1.26.25 1.9.25h3.35a8.67 8.67 0 0 0 4.1-1.1 2.87 2.87 0 0 1 3.33.49c.55.53.87 1.26.9 2.02a2.9 2.9 0 0 1-4.25 2.6 10.63 10.63 0 0 0-5-1.37h-1.37c-.42 0-.83.03-1.24.1a14 14 0 1 0 11.27-22.18Zm8.19 17.18c-.57 0-1.12-.14-1.61-.41a12.51 12.51 0 0 0-5.9-1.64h-1.6c-2.08.05-4.1.61-5.9 1.64a3.4 3.4 0 0 1-5.01-3.06 3.44 3.44 0 0 1 3.48-3.33c.52.02 1.04.15 1.5.4a10.2 10.2 0 0 0 4.76 1.36h3.96a10.2 10.2 0 0 0 4.76-1.36 3.37 3.37 0 0 1 3.93.56 3.4 3.4 0 0 1-2.34 5.84h-.03Z"/><path d="M11.58 21.93a1.08 1.08 0 1 0 0-2.16 1.08 1.08 0 0 0 0 2.16Zm.42-13.85a1.08 1.08 0 1 0 0-2.16 1.08 1.08 0 0 0 0 2.16Z"/></g><defs><clipPath id="a"><path fill="#fff" d="M0 0h28v28h-28z"/></clipPath></defs></svg>