<svg viewBox="0 0 28 28" fill="none" xmlns="http://www.w3.org/2000/svg"><g clip-path="url(#a)" fill="#fff"><path d="M5.47 14.97a1.27 1.27 0 1 0 0-2.54 1.27 1.27 0 0 0 0 2.54Zm16.66 0a1.27 1.27 0 1 0 0-2.54 1.27 1.27 0 0 0 0 2.54Z"/><path d="M14 0a13.97 13.97 0 0 0-11.27 5.6h3.97a8.66 8.66 0 0 0 4.1-1.1 2.87 2.87 0 0 1 3.33.5c.54.54.86 1.26.88 2.03a2.9 2.9 0 0 1-4.29 2.52 10.63 10.63 0 0 0-5-1.36h-1.37c-1.14 0-2.27.22-3.34.62a14 14 0 0 0 0 10.38c.62.16 1.26.25 1.9.25h3.35a8.67 8.67 0 0 0 4.1-1.1 2.87 2.87 0 0 1 3.33.49c.55.53.87 1.26.9 2.02a2.9 2.9 0 0 1-4.25 2.6 10.63 10.63 0 0 0-5-1.37h-1.37c-.42 0-.83.03-1.24.1a14 14 0 1 0 11.27-22.18Zm8.19 17.18c-.57 0-1.12-.14-1.61-.41a12.51 12.51 0 0 0-5.9-1.64h-1.6c-2.08.05-4.1.61-5.9 1.64a3.4 3.4 0 0 1-5.01-3.06 3.44 3.44 0 0 1 3.48-3.33c.52.02 1.04.15 1.5.4a10.2 10.2 0 0 0 4.76 1.36h3.96a10.2 10.2 0 0 0 4.76-1.36 3.37 3.37 0 0 1 3.93.56 3.4 3.4 0 0 1-2.34 5.84h-.03Z"/><path d="M11.58 21.93a1.08 1.08 0 1 0 0-2.16 1.08 1.08 0 0 0 0 2.16Zm.42-13.85a1.08 1.08 0 1 0 0-2.16 1.08 1.08 0 0 0 0 2.16Z"/></g><defs><clipPath id="a"><path fill="#fff" d="M0 0h28v28h-28z"/></clipPath></defs></svg>